<svg id="Capa_1" enable-background="new 0 0 498.151 498.151" height="512" viewBox="0 0 498.151 498.151" width="512" xmlns="http://www.w3.org/2000/svg"><g><path d="m455.988 143.829c23.286 0 42.163 18.877 42.163 42.163v174.169c0 23.286-18.877 42.163-42.163 42.163h-20.298l-24.906 31.128c-4.514 5.642-12.948 6.062-18 .896l-31.317-32.024h-164.83c-23.286 0-42.163-18.877-42.163-42.163v-216.332z" fill="#ade194"/><g><path d="m154.474 143.829v216.332c0 23.286 18.877 42.163 42.163 42.163h51.134c-7.38-7.594-11.932-17.951-11.932-29.376 0-16.165 13.104-29.269 29.269-29.269h75.407c37.093 0 67.163-30.07 67.163-67.163v-132.687z" fill="#97da7b"/><path d="m340.514 60.183h-298.351c-23.286 0-42.163 18.877-42.163 42.163v174.169c0 23.286 18.877 42.163 42.163 42.163h20.297l24.906 31.128c4.514 5.642 12.948 6.062 18 .896l31.317-32.024h203.83c23.286 0 42.163-18.877 42.163-42.163v-174.169c.001-23.286-18.876-42.163-42.162-42.163z" fill="#dff6fd"/><path d="m91.547 276.516v-174.17c0-23.286 18.877-42.163 42.163-42.163h-91.547c-23.286 0-42.163 18.877-42.163 42.163v174.169c0 23.286 18.877 42.163 42.163 42.163h20.297l24.906 31.128c4.514 5.642 12.948 6.062 18 .896l31.317-32.024h-2.974c-23.285 0-42.162-18.877-42.162-42.162z" fill="#c8effe"/><g fill="#99e6fc"><circle cx="191.339" cy="193.198" r="17.995"/><circle cx="81.796" cy="193.198" r="17.995"/><circle cx="300.881" cy="193.198" r="17.995"/></g></g></g></svg>